# xmcd
#
# Track frame offsets:
#	150
#	18974
#	33827
#	57190
#	73767
#	97972
#	114622
#	132216
#	146261
#	164266
#	181998
#
# Disc length: 2660 seconds
#
# Revision: 1
# Processed by: cddbd v1.5.1PL2 Copyright (c) Steve Scherf et al.
# Submitted via: EasyCDDAExtractor 9.0.0.1
#
DISCID=8b0a620b
DTITLE=Валерий Леонтьев - Падаю в небеса
DYEAR=2005
DGENRE=Pop
TTITLE0=Падаю в небеса
TTITLE1=Назови меня
TTITLE2=Бродяга
TTITLE3=Корабли
TTITLE4=Исповедь
TTITLE5=Улетаю
TTITLE6=Фотомодель
TTITLE7=Гюльчатай
TTITLE8=Свеча горела
TTITLE9=Дежавю
TTITLE10=Ягодка
EXTD=
EXTT0=
EXTT1=
EXTT2=
EXTT3=
EXTT4=
EXTT5=
EXTT6=
EXTT7=
EXTT8=
EXTT9=
EXTT10=
PLAYORDER=
